<svg width="11" height="6" viewBox="0 0 11 6" fill="none" xmlns="http://www.w3.org/2000/svg">
<path d="M5.01229 5.46572C4.74709 5.46566 4.49278 5.36985 4.30529 5.19935L0.305288 1.56299C0.209778 1.47913 0.133596 1.37882 0.0811869 1.2679C0.0287779 1.15699 0.00119157 1.0377 3.7757e-05 0.916991C-0.00111606 0.796282 0.0241854 0.676573 0.0744663 0.564849C0.124747 0.453125 0.199 0.351623 0.292893 0.266266C0.386786 0.180909 0.498438 0.113407 0.621334 0.0676967C0.744231 0.0219868 0.87591 -0.0010146 1.00869 3.43246e-05C1.14147 0.00108325 1.27269 0.0261617 1.39469 0.0738062C1.5167 0.121451 1.62704 0.190707 1.71929 0.277535L5.01229 3.27117L8.30529 0.277535C8.39754 0.190707 8.50788 0.121451 8.62988 0.0738062C8.75189 0.0261617 8.88311 0.00108325 9.01589 3.43246e-05C9.14867 -0.0010146 9.28034 0.0219868 9.40324 0.0676967C9.52614 0.113407 9.63779 0.180909 9.73168 0.266266C9.82558 0.351623 9.89983 0.453125 9.95011 0.564849C10.0004 0.676573 10.0257 0.796282 10.0245 0.916991C10.0234 1.0377 9.9958 1.15699 9.94339 1.2679C9.89098 1.37882 9.8148 1.47913 9.71929 1.56299L5.71929 5.19935C5.5318 5.36985 5.27748 5.46566 5.01229 5.46572Z" fill="#20262C"/>
</svg>
